<svg xmlns="http://www.w3.org/2000/svg" xmlns:xlink="http://www.w3.org/1999/xlink" preserveAspectRatio="xMidYMid" width="16.062" height="11" viewBox="0 0 16.062 11">
  <defs>
    <style>
      .cls-1 {
        fill: #fff;
        filter: url(#color-overlay-1);
        opacity: 0.5;
        fill-rule: evenodd;
      }
    </style>

    <filter id="color-overlay-1" filterUnits="userSpaceOnUse">
      <feFlood flood-color="#797b7c"/>
      <feComposite operator="in" in2="SourceGraphic"/>
      <feBlend in2="SourceGraphic" result="solidFill"/>
    </filter>
  </defs>
  <path d="M15.738,5.707 L13.738,7.707 C13.543,7.902 13.287,8.000 13.031,8.000 C12.775,8.000 12.519,7.902 12.324,7.707 L10.324,5.707 C10.038,5.421 9.953,4.991 10.107,4.617 C10.261,4.244 10.627,4.000 11.031,4.000 L12.031,4.000 L12.031,3.000 C12.031,2.448 11.584,2.000 11.031,2.000 L5.031,2.000 C4.479,2.000 4.031,1.552 4.031,1.000 C4.031,0.448 4.479,-0.000 5.031,-0.000 C5.031,-0.000 5.031,0.000 5.031,0.000 L11.031,0.000 C12.688,0.000 14.031,1.343 14.031,3.000 L14.031,4.000 L15.031,4.000 C15.435,4.000 15.800,4.244 15.955,4.617 C16.110,4.991 16.024,5.421 15.738,5.707 ZM5.955,6.383 C5.800,6.756 5.435,7.000 5.031,7.000 L4.031,7.000 L4.031,8.000 C4.031,8.553 4.479,9.000 5.031,9.000 L11.031,9.000 C11.031,9.000 11.031,9.000 11.031,9.000 C11.583,9.000 12.031,9.448 12.031,10.000 C12.031,10.552 11.583,11.000 11.031,11.000 L5.031,11.000 C3.374,11.000 2.031,9.657 2.031,8.000 L2.031,7.000 L1.031,7.000 C0.627,7.000 0.261,6.756 0.107,6.383 C-0.047,6.009 0.038,5.579 0.324,5.293 L2.324,3.293 C2.519,3.098 2.775,3.000 3.031,3.000 C3.287,3.000 3.543,3.098 3.738,3.293 L5.738,5.293 C6.024,5.579 6.110,6.009 5.955,6.383 Z" class="cls-1"/>
</svg>
